<svg width="263" height="80" viewBox="0 0 263 80" fill="none" xmlns="http://www.w3.org/2000/svg">
<mask id="mask0_170_374" style="mask-type:alpha" maskUnits="userSpaceOnUse" x="0" y="0" width="263" height="80">
<rect width="263" height="80" fill="url(#paint0_linear_170_374)"/>
</mask>
<g mask="url(#mask0_170_374)">
<path d="M1 9C1 4.58172 4.58172 1 9 1H255C259.418 1 263 4.58172 263 9V80H1V9Z" fill="#222222"/>
<path d="M17.116 23V22.028H19.276V16.7H17.572V15.956C18.044 15.892 18.432 15.812 18.736 15.716C19.048 15.62 19.332 15.5 19.588 15.356H20.464V22.028H22.396V23H17.116ZM16.828 38V37.304C17.452 36.76 18.008 36.268 18.496 35.828C18.984 35.38 19.392 34.968 19.72 34.592C20.056 34.208 20.312 33.852 20.488 33.524C20.664 33.196 20.752 32.876 20.752 32.564C20.752 32.14 20.624 31.8 20.368 31.544C20.112 31.288 19.72 31.16 19.192 31.16C18.848 31.16 18.528 31.248 18.232 31.424C17.936 31.6 17.672 31.808 17.44 32.048L16.768 31.388C17.128 31.02 17.508 30.732 17.908 30.524C18.316 30.316 18.796 30.212 19.348 30.212C19.732 30.212 20.08 30.268 20.392 30.38C20.712 30.484 20.98 30.636 21.196 30.836C21.42 31.036 21.592 31.28 21.712 31.568C21.832 31.848 21.892 32.16 21.892 32.504C21.892 32.856 21.808 33.212 21.64 33.572C21.472 33.924 21.24 34.288 20.944 34.664C20.648 35.032 20.296 35.416 19.888 35.816C19.48 36.216 19.036 36.632 18.556 37.064C18.788 37.048 19.024 37.032 19.264 37.016C19.512 37 19.744 36.992 19.96 36.992H22.3V38H16.828ZM19.42 53.144C18.756 53.144 18.196 53.04 17.74 52.832C17.284 52.616 16.916 52.36 16.636 52.064L17.224 51.296C17.48 51.528 17.78 51.732 18.124 51.908C18.476 52.084 18.88 52.172 19.336 52.172C19.584 52.172 19.812 52.144 20.02 52.088C20.228 52.024 20.408 51.936 20.56 51.824C20.72 51.712 20.844 51.58 20.932 51.428C21.02 51.268 21.064 51.088 21.064 50.888C21.064 50.68 21.016 50.492 20.92 50.324C20.824 50.148 20.672 50 20.464 49.88C20.256 49.752 19.98 49.656 19.636 49.592C19.3 49.52 18.888 49.484 18.4 49.484V48.596C18.832 48.596 19.2 48.564 19.504 48.5C19.808 48.428 20.056 48.336 20.248 48.224C20.44 48.104 20.58 47.964 20.668 47.804C20.756 47.644 20.8 47.468 20.8 47.276C20.8 46.932 20.664 46.66 20.392 46.46C20.128 46.26 19.776 46.16 19.336 46.16C18.992 46.16 18.668 46.232 18.364 46.376C18.068 46.512 17.792 46.692 17.536 46.916L16.912 46.172C17.248 45.892 17.62 45.664 18.028 45.488C18.436 45.304 18.888 45.212 19.384 45.212C19.76 45.212 20.108 45.256 20.428 45.344C20.748 45.432 21.024 45.56 21.256 45.728C21.488 45.896 21.668 46.104 21.796 46.352C21.932 46.6 22 46.88 22 47.192C22 47.64 21.852 48.012 21.556 48.308C21.268 48.596 20.884 48.82 20.404 48.98V49.028C20.652 49.084 20.888 49.168 21.112 49.28C21.344 49.392 21.544 49.528 21.712 49.688C21.88 49.848 22.012 50.036 22.108 50.252C22.212 50.46 22.264 50.692 22.264 50.948C22.264 51.292 22.188 51.6 22.036 51.872C21.884 52.144 21.68 52.376 21.424 52.568C21.168 52.752 20.864 52.896 20.512 53C20.168 53.096 19.804 53.144 19.42 53.144ZM20.332 68V65.96H16.456V65.156L20.116 60.344H21.448V65.024H22.588V65.96H21.448V68H20.332ZM17.704 65.024H20.332V62.936C20.34 62.72 20.348 62.484 20.356 62.228C20.364 61.964 20.376 61.72 20.392 61.496H20.332C20.212 61.696 20.084 61.892 19.948 62.084C19.812 62.276 19.676 62.468 19.54 62.66L17.704 65.024Z" fill="white" fill-opacity="0.5"/>
<path d="M34.5306 53.144C34.0746 53.144 33.6466 53.076 33.2466 52.94C32.8546 52.804 32.5146 52.604 32.2266 52.34C31.9386 52.076 31.7106 51.756 31.5426 51.38C31.3826 50.996 31.3026 50.56 31.3026 50.072C31.3026 49.584 31.3906 49.148 31.5666 48.764C31.7426 48.38 31.9826 48.056 32.2866 47.792C32.5906 47.528 32.9386 47.328 33.3306 47.192C33.7306 47.056 34.1546 46.988 34.6026 46.988C35.0826 46.988 35.5026 47.072 35.8626 47.24C36.2226 47.4 36.5226 47.596 36.7626 47.828L36.1866 48.584C35.9546 48.392 35.7146 48.244 35.4666 48.14C35.2186 48.028 34.9506 47.972 34.6626 47.972C34.3506 47.972 34.0626 48.024 33.7986 48.128C33.5346 48.224 33.3066 48.364 33.1146 48.548C32.9306 48.732 32.7866 48.956 32.6826 49.22C32.5786 49.476 32.5266 49.76 32.5266 50.072C32.5266 50.384 32.5746 50.672 32.6706 50.936C32.7746 51.192 32.9186 51.412 33.1026 51.596C33.2946 51.78 33.5186 51.924 33.7746 52.028C34.0306 52.124 34.3146 52.172 34.6266 52.172C34.9866 52.172 35.3066 52.104 35.5866 51.968C35.8746 51.832 36.1346 51.668 36.3666 51.476L36.8826 52.244C36.5466 52.532 36.1786 52.756 35.7786 52.916C35.3786 53.068 34.9626 53.144 34.5306 53.144ZM42.4339 53.144C41.7779 53.144 41.2779 52.956 40.9339 52.58C40.5899 52.204 40.4179 51.66 40.4179 50.948V45.44H38.4019V44.492H41.6059V51.02C41.6059 51.428 41.7059 51.724 41.9059 51.908C42.1139 52.084 42.3819 52.172 42.7099 52.172C43.0139 52.172 43.3659 52.088 43.7659 51.92L44.0539 52.808C43.7739 52.92 43.5139 53.004 43.2739 53.06C43.0419 53.116 42.7619 53.144 42.4339 53.144ZM48.4533 53V48.092H45.8253V47.132H49.6413V53H48.4533ZM48.9453 45.992C48.6893 45.992 48.4773 45.916 48.3092 45.764C48.1413 45.604 48.0573 45.396 48.0573 45.14C48.0573 44.884 48.1413 44.68 48.3092 44.528C48.4773 44.368 48.6893 44.288 48.9453 44.288C49.2013 44.288 49.4133 44.368 49.5813 44.528C49.7493 44.68 49.8333 44.884 49.8333 45.14C49.8333 45.396 49.7493 45.604 49.5813 45.764C49.4133 45.916 49.2013 45.992 48.9453 45.992ZM55.9366 53.144C55.4886 53.144 55.0726 53.076 54.6886 52.94C54.3046 52.804 53.9686 52.604 53.6806 52.34C53.3926 52.076 53.1646 51.752 52.9966 51.368C52.8366 50.984 52.7566 50.548 52.7566 50.06C52.7566 49.58 52.8406 49.152 53.0086 48.776C53.1766 48.392 53.3966 48.068 53.6686 47.804C53.9486 47.54 54.2686 47.34 54.6286 47.204C54.9886 47.06 55.3646 46.988 55.7566 46.988C56.1886 46.988 56.5726 47.056 56.9086 47.192C57.2446 47.328 57.5246 47.52 57.7486 47.768C57.9806 48.008 58.1566 48.3 58.2766 48.644C58.3966 48.98 58.4566 49.352 58.4566 49.76C58.4566 49.888 58.4526 50.008 58.4446 50.12C58.4366 50.232 58.4246 50.328 58.4086 50.408H53.9446C54.0086 51.016 54.2366 51.468 54.6286 51.764C55.0286 52.06 55.5166 52.208 56.0926 52.208C56.4206 52.208 56.7206 52.164 56.9926 52.076C57.2646 51.98 57.5326 51.852 57.7966 51.692L58.2166 52.448C57.9126 52.648 57.5686 52.816 57.1846 52.952C56.8086 53.08 56.3926 53.144 55.9366 53.144ZM55.7926 47.924C55.5686 47.924 55.3566 47.96 55.1566 48.032C54.9566 48.096 54.7766 48.196 54.6166 48.332C54.4566 48.468 54.3206 48.636 54.2086 48.836C54.0966 49.036 54.0166 49.268 53.9686 49.532H57.3886C57.3486 48.996 57.1846 48.596 56.8966 48.332C56.6166 48.06 56.2486 47.924 55.7926 47.924ZM60.2279 53V47.132H61.1999L61.2959 48.08H61.3439C61.6399 47.776 61.9599 47.52 62.3039 47.312C62.6479 47.096 63.0479 46.988 63.5039 46.988C64.1919 46.988 64.6959 47.192 65.0159 47.6C65.3359 48.008 65.4959 48.596 65.4959 49.364V53H64.3079V49.52C64.3079 49.008 64.2159 48.632 64.0319 48.392C63.8479 48.144 63.5319 48.02 63.0839 48.02C62.7719 48.02 62.4919 48.1 62.2439 48.26C61.9959 48.412 61.7199 48.644 61.4159 48.956V53H60.2279ZM71.0712 53.144C70.6392 53.144 70.2712 53.084 69.9672 52.964C69.6712 52.844 69.4312 52.676 69.2472 52.46C69.0712 52.244 68.9432 51.988 68.8632 51.692C68.7832 51.388 68.7432 51.052 68.7432 50.684V48.092H67.1352V47.192L68.7912 47.132L68.9472 45.272H69.9312V47.132H72.7032V48.092H69.9312V50.684C69.9312 51.188 70.0312 51.564 70.2312 51.812C70.4392 52.06 70.8112 52.184 71.3472 52.184C71.6032 52.184 71.8392 52.164 72.0552 52.124C72.2712 52.076 72.4832 52.012 72.6912 51.932L72.9312 52.808C72.6672 52.896 72.3872 52.972 72.0912 53.036C71.7952 53.108 71.4552 53.144 71.0712 53.144ZM81.7298 48.164V47.3H86.9858V48.164H81.7298ZM81.7298 50.768V49.904H86.9858V50.768H81.7298ZM143.384 55.112C142.56 54.456 141.912 53.676 141.44 52.772C140.968 51.86 140.732 50.824 140.732 49.664C140.732 48.504 140.968 47.472 141.44 46.568C141.912 45.656 142.56 44.872 143.384 44.216L144.044 44.78C143.26 45.468 142.684 46.208 142.316 47C141.948 47.784 141.764 48.672 141.764 49.664C141.764 50.656 141.948 51.548 142.316 52.34C142.684 53.132 143.26 53.868 144.044 54.548L143.384 55.112ZM147.652 55.112L146.992 54.548C147.768 53.868 148.34 53.132 148.708 52.34C149.084 51.548 149.272 50.656 149.272 49.664C149.272 48.672 149.084 47.784 148.708 47C148.34 46.208 147.768 45.468 146.992 44.78L147.652 44.216C148.476 44.872 149.124 45.656 149.596 46.568C150.068 47.472 150.304 48.504 150.304 49.664C150.304 50.824 150.068 51.86 149.596 52.772C149.124 53.676 148.476 54.456 147.652 55.112Z" fill="white"/>
<path d="M34.0626 23V18.092H31.4346V17.132H35.2506V23H34.0626ZM34.5546 15.992C34.2986 15.992 34.0866 15.916 33.9186 15.764C33.7506 15.604 33.6666 15.396 33.6666 15.14C33.6666 14.884 33.7506 14.68 33.9186 14.528C34.0866 14.368 34.2986 14.288 34.5546 14.288C34.8106 14.288 35.0226 14.368 35.1906 14.528C35.3586 14.68 35.4426 14.884 35.4426 15.14C35.4426 15.396 35.3586 15.604 35.1906 15.764C35.0226 15.916 34.8106 15.992 34.5546 15.992ZM38.2099 23V17.132H39.1459L39.2419 17.9H39.2659C39.4019 17.636 39.5699 17.42 39.7699 17.252C39.9779 17.076 40.2499 16.988 40.5859 16.988C41.1459 16.988 41.5059 17.324 41.6659 17.996C41.8259 17.692 42.0059 17.448 42.2059 17.264C42.4139 17.08 42.6859 16.988 43.0219 16.988C43.4379 16.988 43.7579 17.148 43.9819 17.468C44.2139 17.78 44.3299 18.232 44.3299 18.824V23H43.1659V18.908C43.1659 18.308 42.9859 18.008 42.6259 18.008C42.4419 18.008 42.2899 18.076 42.1699 18.212C42.0499 18.348 41.9219 18.552 41.7859 18.824V23H40.7539V18.908C40.7539 18.308 40.5779 18.008 40.2259 18.008C40.0419 18.008 39.8859 18.076 39.7579 18.212C39.6299 18.348 39.5019 18.552 39.3739 18.824V23H38.2099ZM45.8373 25.4V17.132H46.8093L46.9053 17.852H46.9413C47.2053 17.596 47.5093 17.388 47.8533 17.228C48.1973 17.068 48.5453 16.988 48.8973 16.988C49.2813 16.988 49.6213 17.06 49.9173 17.204C50.2213 17.34 50.4733 17.54 50.6733 17.804C50.8813 18.06 51.0373 18.372 51.1413 18.74C51.2533 19.108 51.3093 19.52 51.3093 19.976C51.3093 20.48 51.2373 20.928 51.0933 21.32C50.9493 21.712 50.7533 22.044 50.5053 22.316C50.2653 22.58 49.9853 22.784 49.6653 22.928C49.3453 23.072 49.0133 23.144 48.6693 23.144C48.3973 23.144 48.1133 23.084 47.8173 22.964C47.5213 22.836 47.2493 22.656 47.0013 22.424H46.9653L47.0253 23.48V25.4H45.8373ZM48.4413 22.16C48.9133 22.16 49.3053 21.976 49.6173 21.608C49.9293 21.232 50.0853 20.692 50.0853 19.988C50.0853 19.372 49.9653 18.884 49.7253 18.524C49.4853 18.164 49.1013 17.984 48.5733 17.984C48.3333 17.984 48.0813 18.048 47.8173 18.176C47.5533 18.296 47.2893 18.496 47.0253 18.776V21.548C47.2733 21.772 47.5253 21.932 47.7812 22.028C48.0373 22.116 48.2573 22.16 48.4413 22.16ZM55.5766 23.144C55.1926 23.144 54.8246 23.076 54.4726 22.94C54.1206 22.804 53.8086 22.604 53.5366 22.34C53.2646 22.076 53.0486 21.756 52.8886 21.38C52.7286 20.996 52.6486 20.56 52.6486 20.072C52.6486 19.584 52.7286 19.148 52.8886 18.764C53.0486 18.38 53.2646 18.056 53.5366 17.792C53.8086 17.528 54.1206 17.328 54.4726 17.192C54.8246 17.056 55.1926 16.988 55.5766 16.988C55.9606 16.988 56.3286 17.056 56.6806 17.192C57.0326 17.328 57.3446 17.528 57.6166 17.792C57.8886 18.056 58.1046 18.38 58.2646 18.764C58.4246 19.148 58.5046 19.584 58.5046 20.072C58.5046 20.56 58.4246 20.996 58.2646 21.38C58.1046 21.756 57.8886 22.076 57.6166 22.34C57.3446 22.604 57.0326 22.804 56.6806 22.94C56.3286 23.076 55.9606 23.144 55.5766 23.144ZM55.5766 22.172C56.1046 22.172 56.5206 21.98 56.8246 21.596C57.1286 21.212 57.2806 20.704 57.2806 20.072C57.2806 19.44 57.1286 18.932 56.8246 18.548C56.5206 18.164 56.1046 17.972 55.5766 17.972C55.0486 17.972 54.6326 18.164 54.3286 18.548C54.0246 18.932 53.8726 19.44 53.8726 20.072C53.8726 20.704 54.0246 21.212 54.3286 21.596C54.6326 21.98 55.0486 22.172 55.5766 22.172ZM60.8279 23V17.132H61.8119L61.9079 18.5H61.9439C62.2479 18.02 62.6159 17.648 63.0479 17.384C63.4879 17.12 63.9719 16.988 64.4999 16.988C64.7319 16.988 64.9359 17.008 65.1119 17.048C65.2879 17.08 65.4679 17.14 65.6519 17.228L65.3879 18.248C65.1879 18.184 65.0159 18.136 64.8719 18.104C64.7279 18.072 64.5439 18.056 64.3199 18.056C63.8959 18.056 63.4879 18.176 63.0959 18.416C62.7039 18.656 62.3439 19.072 62.0159 19.664V23H60.8279ZM71.0712 23.144C70.6392 23.144 70.2712 23.084 69.9672 22.964C69.6712 22.844 69.4312 22.676 69.2472 22.46C69.0712 22.244 68.9432 21.988 68.8632 21.692C68.7832 21.388 68.7432 21.052 68.7432 20.684V18.092H67.1352V17.192L68.7912 17.132L68.9472 15.272H69.9312V17.132H72.7032V18.092H69.9312V20.684C69.9312 21.188 70.0312 21.564 70.2312 21.812C70.4392 22.06 70.8112 22.184 71.3472 22.184C71.6032 22.184 71.8392 22.164 72.0552 22.124C72.2712 22.076 72.4832 22.012 72.6912 21.932L72.9312 22.808C72.6672 22.896 72.3872 22.972 72.0912 23.036C71.7952 23.108 71.4552 23.144 71.0712 23.144ZM133.945 23V18.092H132.301V17.192L133.945 17.132V16.724C133.945 16.372 133.993 16.052 134.089 15.764C134.185 15.468 134.333 15.216 134.533 15.008C134.733 14.8 134.985 14.64 135.289 14.528C135.593 14.408 135.953 14.348 136.369 14.348C136.953 14.348 137.525 14.46 138.085 14.684L137.821 15.56C137.597 15.464 137.381 15.396 137.173 15.356C136.973 15.316 136.749 15.296 136.501 15.296C136.013 15.296 135.661 15.42 135.445 15.668C135.229 15.908 135.121 16.252 135.121 16.7V17.132H137.461V18.092H135.121V23H133.945ZM139.976 23V17.132H140.96L141.056 18.5H141.092C141.396 18.02 141.764 17.648 142.196 17.384C142.636 17.12 143.12 16.988 143.648 16.988C143.88 16.988 144.084 17.008 144.26 17.048C144.436 17.08 144.616 17.14 144.8 17.228L144.536 18.248C144.336 18.184 144.164 18.136 144.02 18.104C143.876 18.072 143.692 18.056 143.468 18.056C143.044 18.056 142.636 18.176 142.244 18.416C141.852 18.656 141.492 19.072 141.164 19.664V23H139.976ZM149.116 23.144C148.732 23.144 148.364 23.076 148.012 22.94C147.66 22.804 147.348 22.604 147.076 22.34C146.804 22.076 146.588 21.756 146.428 21.38C146.268 20.996 146.188 20.56 146.188 20.072C146.188 19.584 146.268 19.148 146.428 18.764C146.588 18.38 146.804 18.056 147.076 17.792C147.348 17.528 147.66 17.328 148.012 17.192C148.364 17.056 148.732 16.988 149.116 16.988C149.5 16.988 149.868 17.056 150.22 17.192C150.572 17.328 150.884 17.528 151.156 17.792C151.428 18.056 151.644 18.38 151.804 18.764C151.964 19.148 152.044 19.584 152.044 20.072C152.044 20.56 151.964 20.996 151.804 21.38C151.644 21.756 151.428 22.076 151.156 22.34C150.884 22.604 150.572 22.804 150.22 22.94C149.868 23.076 149.5 23.144 149.116 23.144ZM149.116 22.172C149.644 22.172 150.06 21.98 150.364 21.596C150.668 21.212 150.82 20.704 150.82 20.072C150.82 19.44 150.668 18.932 150.364 18.548C150.06 18.164 149.644 17.972 149.116 17.972C148.588 17.972 148.172 18.164 147.868 18.548C147.564 18.932 147.412 19.44 147.412 20.072C147.412 20.704 147.564 21.212 147.868 21.596C148.172 21.98 148.588 22.172 149.116 22.172ZM153.335 23V17.132H154.271L154.367 17.9H154.391C154.527 17.636 154.695 17.42 154.895 17.252C155.103 17.076 155.375 16.988 155.711 16.988C156.271 16.988 156.631 17.324 156.791 17.996C156.951 17.692 157.131 17.448 157.331 17.264C157.539 17.08 157.811 16.988 158.147 16.988C158.563 16.988 158.883 17.148 159.107 17.468C159.339 17.78 159.455 18.232 159.455 18.824V23H158.291V18.908C158.291 18.308 158.111 18.008 157.751 18.008C157.567 18.008 157.415 18.076 157.295 18.212C157.175 18.348 157.047 18.552 156.911 18.824V23H155.879V18.908C155.879 18.308 155.703 18.008 155.351 18.008C155.167 18.008 155.011 18.076 154.883 18.212C154.755 18.348 154.627 18.552 154.499 18.824V23H153.335Z" fill="#BE5151"/>
<path d="M84.3578 23.144C83.9098 23.144 83.4978 23.052 83.1218 22.868C82.7458 22.684 82.4218 22.42 82.1498 22.076C81.8778 21.724 81.6658 21.292 81.5138 20.78C81.3698 20.268 81.2978 19.688 81.2978 19.04C81.2978 18.4 81.3698 17.828 81.5138 17.324C81.6658 16.82 81.8778 16.396 82.1498 16.052C82.4218 15.708 82.7458 15.448 83.1218 15.272C83.4978 15.088 83.9098 14.996 84.3578 14.996C84.8058 14.996 85.2178 15.088 85.5938 15.272C85.9698 15.448 86.2898 15.708 86.5538 16.052C86.8258 16.396 87.0378 16.82 87.1898 17.324C87.3418 17.828 87.4178 18.4 87.4178 19.04C87.4178 19.688 87.3418 20.268 87.1898 20.78C87.0378 21.292 86.8258 21.724 86.5538 22.076C86.2898 22.42 85.9698 22.684 85.5938 22.868C85.2178 23.052 84.8058 23.144 84.3578 23.144ZM84.3578 22.1C84.9098 22.1 85.3498 21.832 85.6778 21.296C86.0138 20.76 86.1818 20.008 86.1818 19.04C86.1818 18.088 86.0138 17.352 85.6778 16.832C85.3498 16.304 84.9098 16.04 84.3578 16.04C83.8058 16.04 83.3618 16.304 83.0258 16.832C82.6978 17.352 82.5338 18.088 82.5338 19.04C82.5338 20.008 82.6978 20.76 83.0258 21.296C83.3618 21.832 83.8058 22.1 84.3578 22.1ZM89.0091 25.4V17.132H89.9811L90.0771 17.852H90.1131C90.3771 17.596 90.6811 17.388 91.0251 17.228C91.3691 17.068 91.7171 16.988 92.0691 16.988C92.4531 16.988 92.7931 17.06 93.0891 17.204C93.3931 17.34 93.6451 17.54 93.8451 17.804C94.0531 18.06 94.2091 18.372 94.3131 18.74C94.4251 19.108 94.4811 19.52 94.4811 19.976C94.4811 20.48 94.4091 20.928 94.2651 21.32C94.1211 21.712 93.9251 22.044 93.6771 22.316C93.4371 22.58 93.1571 22.784 92.8371 22.928C92.5171 23.072 92.1851 23.144 91.8411 23.144C91.5691 23.144 91.2851 23.084 90.9891 22.964C90.6931 22.836 90.4211 22.656 90.1731 22.424H90.1371L90.1971 23.48V25.4H89.0091ZM91.6131 22.16C92.0851 22.16 92.4771 21.976 92.7891 21.608C93.1011 21.232 93.2571 20.692 93.2571 19.988C93.2571 19.372 93.1371 18.884 92.8971 18.524C92.6571 18.164 92.2731 17.984 91.7451 17.984C91.5051 17.984 91.2531 18.048 90.9891 18.176C90.7251 18.296 90.4611 18.496 90.1971 18.776V21.548C90.4451 21.772 90.6971 21.932 90.9531 22.028C91.2091 22.116 91.4291 22.16 91.6131 22.16ZM99.1084 23.144C98.6604 23.144 98.2444 23.076 97.8604 22.94C97.4764 22.804 97.1404 22.604 96.8524 22.34C96.5644 22.076 96.3364 21.752 96.1684 21.368C96.0084 20.984 95.9284 20.548 95.9284 20.06C95.9284 19.58 96.0124 19.152 96.1804 18.776C96.3484 18.392 96.5684 18.068 96.8404 17.804C97.1204 17.54 97.4404 17.34 97.8004 17.204C98.1604 17.06 98.5364 16.988 98.9284 16.988C99.3604 16.988 99.7444 17.056 100.08 17.192C100.416 17.328 100.696 17.52 100.92 17.768C101.152 18.008 101.328 18.3 101.448 18.644C101.568 18.98 101.628 19.352 101.628 19.76C101.628 19.888 101.624 20.008 101.616 20.12C101.608 20.232 101.596 20.328 101.58 20.408H97.1164C97.1804 21.016 97.4084 21.468 97.8004 21.764C98.2004 22.06 98.6884 22.208 99.2644 22.208C99.5924 22.208 99.8924 22.164 100.164 22.076C100.436 21.98 100.704 21.852 100.968 21.692L101.388 22.448C101.084 22.648 100.74 22.816 100.356 22.952C99.9804 23.08 99.5644 23.144 99.1084 23.144ZM98.9644 17.924C98.7404 17.924 98.5284 17.96 98.3284 18.032C98.1284 18.096 97.9484 18.196 97.7884 18.332C97.6284 18.468 97.4924 18.636 97.3804 18.836C97.2684 19.036 97.1884 19.268 97.1404 19.532H100.56C100.52 18.996 100.356 18.596 100.068 18.332C99.7884 18.06 99.4204 17.924 98.9644 17.924ZM103.4 23V17.132H104.372L104.468 18.08H104.516C104.812 17.776 105.132 17.52 105.476 17.312C105.82 17.096 106.22 16.988 106.676 16.988C107.364 16.988 107.868 17.192 108.188 17.6C108.508 18.008 108.668 18.596 108.668 19.364V23H107.48V19.52C107.48 19.008 107.388 18.632 107.204 18.392C107.02 18.144 106.704 18.02 106.256 18.02C105.944 18.02 105.664 18.1 105.416 18.26C105.168 18.412 104.892 18.644 104.588 18.956V23H103.4ZM112.359 18.716L112.035 19.796H114.207L113.883 18.716C113.755 18.284 113.627 17.852 113.499 17.42C113.371 16.988 113.251 16.548 113.139 16.1H113.091C112.979 16.548 112.859 16.988 112.731 17.42C112.611 17.852 112.487 18.284 112.359 18.716ZM109.851 23L112.443 15.14H113.835L116.427 23H115.155L114.483 20.744H111.747L111.075 23H109.851ZM117.814 23V21.992H119.734V16.148H117.814V15.14H122.854V16.148H120.934V21.992H122.854V23H117.814ZM98.7484 53.144C98.3004 53.144 97.8884 53.052 97.5124 52.868C97.1364 52.684 96.8124 52.42 96.5404 52.076C96.2684 51.724 96.0564 51.292 95.9044 50.78C95.7604 50.268 95.6884 49.688 95.6884 49.04C95.6884 48.4 95.7604 47.828 95.9044 47.324C96.0564 46.82 96.2684 46.396 96.5404 46.052C96.8124 45.708 97.1364 45.448 97.5124 45.272C97.8884 45.088 98.3004 44.996 98.7484 44.996C99.1964 44.996 99.6084 45.088 99.9844 45.272C100.36 45.448 100.68 45.708 100.944 46.052C101.216 46.396 101.428 46.82 101.58 47.324C101.732 47.828 101.808 48.4 101.808 49.04C101.808 49.688 101.732 50.268 101.58 50.78C101.428 51.292 101.216 51.724 100.944 52.076C100.68 52.42 100.36 52.684 99.9844 52.868C99.6084 53.052 99.1964 53.144 98.7484 53.144ZM98.7484 52.1C99.3004 52.1 99.7404 51.832 100.068 51.296C100.404 50.76 100.572 50.008 100.572 49.04C100.572 48.088 100.404 47.352 100.068 46.832C99.7404 46.304 99.3004 46.04 98.7484 46.04C98.1964 46.04 97.7524 46.304 97.4164 46.832C97.0884 47.352 96.9244 48.088 96.9244 49.04C96.9244 50.008 97.0884 50.76 97.4164 51.296C97.7524 51.832 98.1964 52.1 98.7484 52.1ZM103.4 55.4V47.132H104.372L104.468 47.852H104.504C104.768 47.596 105.072 47.388 105.416 47.228C105.76 47.068 106.108 46.988 106.46 46.988C106.844 46.988 107.184 47.06 107.48 47.204C107.784 47.34 108.036 47.54 108.236 47.804C108.444 48.06 108.6 48.372 108.704 48.74C108.816 49.108 108.872 49.52 108.872 49.976C108.872 50.48 108.8 50.928 108.656 51.32C108.512 51.712 108.316 52.044 108.068 52.316C107.828 52.58 107.548 52.784 107.228 52.928C106.908 53.072 106.576 53.144 106.232 53.144C105.96 53.144 105.676 53.084 105.38 52.964C105.084 52.836 104.812 52.656 104.564 52.424H104.528L104.588 53.48V55.4H103.4ZM106.004 52.16C106.476 52.16 106.868 51.976 107.18 51.608C107.492 51.232 107.648 50.692 107.648 49.988C107.648 49.372 107.528 48.884 107.288 48.524C107.048 48.164 106.664 47.984 106.136 47.984C105.896 47.984 105.644 48.048 105.38 48.176C105.116 48.296 104.852 48.496 104.588 48.776V51.548C104.836 51.772 105.088 51.932 105.344 52.028C105.6 52.116 105.82 52.16 106.004 52.16ZM113.499 53.144C113.051 53.144 112.635 53.076 112.251 52.94C111.867 52.804 111.531 52.604 111.243 52.34C110.955 52.076 110.727 51.752 110.559 51.368C110.399 50.984 110.319 50.548 110.319 50.06C110.319 49.58 110.403 49.152 110.571 48.776C110.739 48.392 110.959 48.068 111.231 47.804C111.511 47.54 111.831 47.34 112.191 47.204C112.551 47.06 112.927 46.988 113.319 46.988C113.751 46.988 114.135 47.056 114.471 47.192C114.807 47.328 115.087 47.52 115.311 47.768C115.543 48.008 115.719 48.3 115.839 48.644C115.959 48.98 116.019 49.352 116.019 49.76C116.019 49.888 116.015 50.008 116.007 50.12C115.999 50.232 115.987 50.328 115.971 50.408H111.507C111.571 51.016 111.799 51.468 112.191 51.764C112.591 52.06 113.079 52.208 113.655 52.208C113.983 52.208 114.283 52.164 114.555 52.076C114.827 51.98 115.095 51.852 115.359 51.692L115.779 52.448C115.475 52.648 115.131 52.816 114.747 52.952C114.371 53.08 113.955 53.144 113.499 53.144ZM113.355 47.924C113.131 47.924 112.919 47.96 112.719 48.032C112.519 48.096 112.339 48.196 112.179 48.332C112.019 48.468 111.883 48.636 111.771 48.836C111.659 49.036 111.579 49.268 111.531 49.532H114.951C114.911 48.996 114.747 48.596 114.459 48.332C114.179 48.06 113.811 47.924 113.355 47.924ZM117.79 53V47.132H118.762L118.858 48.08H118.906C119.202 47.776 119.522 47.52 119.866 47.312C120.21 47.096 120.61 46.988 121.066 46.988C121.754 46.988 122.258 47.192 122.578 47.6C122.898 48.008 123.058 48.596 123.058 49.364V53H121.87V49.52C121.87 49.008 121.778 48.632 121.594 48.392C121.41 48.144 121.094 48.02 120.646 48.02C120.334 48.02 120.054 48.1 119.806 48.26C119.558 48.412 119.282 48.644 118.978 48.956V53H117.79ZM126.75 48.716L126.426 49.796H128.598L128.274 48.716C128.146 48.284 128.018 47.852 127.89 47.42C127.762 46.988 127.642 46.548 127.53 46.1H127.482C127.37 46.548 127.25 46.988 127.122 47.42C127.002 47.852 126.878 48.284 126.75 48.716ZM124.242 53L126.834 45.14H128.226L130.818 53H129.546L128.874 50.744H126.138L125.466 53H124.242ZM132.205 53V51.992H134.125V46.148H132.205V45.14H137.245V46.148H135.325V51.992H137.245V53H132.205Z" fill="#51BE9C"/>
<path d="M168.158 23V17.132H169.13L169.226 18.08H169.274C169.57 17.776 169.89 17.52 170.234 17.312C170.578 17.096 170.978 16.988 171.434 16.988C172.122 16.988 172.626 17.192 172.946 17.6C173.266 18.008 173.426 18.596 173.426 19.364V23H172.238V19.52C172.238 19.008 172.146 18.632 171.962 18.392C171.778 18.144 171.462 18.02 171.014 18.02C170.702 18.02 170.422 18.1 170.174 18.26C169.926 18.412 169.65 18.644 169.346 18.956V23H168.158ZM178.257 23.144C177.809 23.144 177.393 23.076 177.009 22.94C176.625 22.804 176.289 22.604 176.001 22.34C175.713 22.076 175.485 21.752 175.317 21.368C175.157 20.984 175.077 20.548 175.077 20.06C175.077 19.58 175.161 19.152 175.329 18.776C175.497 18.392 175.717 18.068 175.989 17.804C176.269 17.54 176.589 17.34 176.949 17.204C177.309 17.06 177.685 16.988 178.077 16.988C178.509 16.988 178.893 17.056 179.229 17.192C179.565 17.328 179.845 17.52 180.069 17.768C180.301 18.008 180.477 18.3 180.597 18.644C180.717 18.98 180.777 19.352 180.777 19.76C180.777 19.888 180.773 20.008 180.765 20.12C180.757 20.232 180.745 20.328 180.729 20.408H176.265C176.329 21.016 176.557 21.468 176.949 21.764C177.349 22.06 177.837 22.208 178.413 22.208C178.741 22.208 179.041 22.164 179.313 22.076C179.585 21.98 179.853 21.852 180.117 21.692L180.537 22.448C180.233 22.648 179.889 22.816 179.505 22.952C179.129 23.08 178.713 23.144 178.257 23.144ZM178.113 17.924C177.889 17.924 177.677 17.96 177.477 18.032C177.277 18.096 177.097 18.196 176.937 18.332C176.777 18.468 176.641 18.636 176.529 18.836C176.417 19.036 176.337 19.268 176.289 19.532H179.709C179.669 18.996 179.505 18.596 179.217 18.332C178.937 18.06 178.569 17.924 178.113 17.924ZM182.176 23L184.36 19.952L182.332 17.132H183.628L184.48 18.332C184.584 18.492 184.692 18.66 184.804 18.836C184.916 19.004 185.028 19.168 185.14 19.328H185.188C185.292 19.168 185.396 19 185.5 18.824C185.612 18.648 185.716 18.48 185.812 18.32L186.592 17.132H187.852L185.812 20.072L187.996 23H186.7L185.764 21.752C185.652 21.584 185.532 21.408 185.404 21.224C185.276 21.04 185.148 20.864 185.02 20.696H184.972C184.86 20.872 184.748 21.048 184.636 21.224C184.524 21.392 184.412 21.568 184.3 21.752L183.436 23H182.176ZM191.58 23.144C191.3 23.144 191.036 23.104 190.788 23.024C190.548 22.944 190.34 22.832 190.164 22.688C189.988 22.536 189.848 22.356 189.744 22.148C189.648 21.94 189.6 21.708 189.6 21.452C189.6 21.124 189.676 20.836 189.828 20.588C189.988 20.34 190.232 20.128 190.56 19.952C190.896 19.776 191.324 19.632 191.844 19.52C192.372 19.408 193.004 19.324 193.74 19.268C193.724 18.908 193.604 18.6 193.38 18.344C193.164 18.088 192.796 17.96 192.276 17.96C191.916 17.96 191.564 18.028 191.22 18.164C190.884 18.3 190.572 18.452 190.284 18.62L189.84 17.816C190 17.72 190.18 17.624 190.38 17.528C190.58 17.424 190.792 17.332 191.016 17.252C191.248 17.172 191.484 17.108 191.724 17.06C191.972 17.012 192.224 16.988 192.48 16.988C193.296 16.988 193.908 17.208 194.316 17.648C194.724 18.088 194.928 18.696 194.928 19.472V23H193.956L193.86 22.244H193.824C193.512 22.484 193.16 22.696 192.768 22.88C192.384 23.056 191.988 23.144 191.58 23.144ZM191.916 22.196C192.228 22.196 192.532 22.128 192.828 21.992C193.132 21.856 193.436 21.664 193.74 21.416V20.024C193.164 20.072 192.684 20.136 192.3 20.216C191.916 20.288 191.608 20.384 191.376 20.504C191.152 20.616 190.992 20.744 190.896 20.888C190.8 21.032 190.752 21.192 190.752 21.368C190.752 21.664 190.864 21.876 191.088 22.004C191.32 22.132 191.596 22.196 191.916 22.196ZM197.539 23V17.132H198.523L198.619 18.5H198.655C198.959 18.02 199.327 17.648 199.759 17.384C200.199 17.12 200.683 16.988 201.211 16.988C201.443 16.988 201.647 17.008 201.823 17.048C201.999 17.08 202.179 17.14 202.363 17.228L202.099 18.248C201.899 18.184 201.727 18.136 201.583 18.104C201.439 18.072 201.255 18.056 201.031 18.056C200.607 18.056 200.199 18.176 199.807 18.416C199.415 18.656 199.055 19.072 198.727 19.664V23H197.539ZM205.97 23.144C205.69 23.144 205.426 23.104 205.178 23.024C204.938 22.944 204.73 22.832 204.554 22.688C204.378 22.536 204.238 22.356 204.134 22.148C204.038 21.94 203.99 21.708 203.99 21.452C203.99 21.124 204.066 20.836 204.218 20.588C204.378 20.34 204.622 20.128 204.95 19.952C205.286 19.776 205.714 19.632 206.234 19.52C206.762 19.408 207.394 19.324 208.13 19.268C208.114 18.908 207.994 18.6 207.77 18.344C207.554 18.088 207.186 17.96 206.666 17.96C206.306 17.96 205.954 18.028 205.61 18.164C205.274 18.3 204.962 18.452 204.674 18.62L204.23 17.816C204.39 17.72 204.57 17.624 204.77 17.528C204.97 17.424 205.182 17.332 205.406 17.252C205.638 17.172 205.874 17.108 206.114 17.06C206.362 17.012 206.614 16.988 206.87 16.988C207.686 16.988 208.298 17.208 208.706 17.648C209.114 18.088 209.318 18.696 209.318 19.472V23H208.346L208.25 22.244H208.214C207.902 22.484 207.55 22.696 207.158 22.88C206.774 23.056 206.378 23.144 205.97 23.144ZM206.306 22.196C206.618 22.196 206.922 22.128 207.218 21.992C207.522 21.856 207.826 21.664 208.13 21.416V20.024C207.554 20.072 207.074 20.136 206.69 20.216C206.306 20.288 205.998 20.384 205.766 20.504C205.542 20.616 205.382 20.744 205.286 20.888C205.19 21.032 205.142 21.192 205.142 21.368C205.142 21.664 205.254 21.876 205.478 22.004C205.71 22.132 205.986 22.196 206.306 22.196Z" fill="#5351BE"/>
</g>
<defs>
<linearGradient id="paint0_linear_170_374" x1="132" y1="25" x2="132" y2="80" gradientUnits="userSpaceOnUse">
<stop stop-color="#D9D9D9"/>
<stop offset="1" stop-color="#737373" stop-opacity="0"/>
</linearGradient>
</defs>
</svg>
